<svg width="20" height="20" viewBox="0 0 20 20" fill="none" xmlns="http://www.w3.org/2000/svg">
<g clip-path="url(#clip0_1201_12317)">
<path d="M10.0048 18.1074C14.4797 18.1074 18.1072 14.4798 18.1072 10.0049C18.1072 5.53006 14.4797 1.90247 10.0048 1.90247C5.52994 1.90247 1.90234 5.53006 1.90234 10.0049C1.90234 14.4798 5.52994 18.1074 10.0048 18.1074Z" stroke="#999999" stroke-width="2" stroke-linecap="round" stroke-linejoin="round"/>
<path d="M10.0049 10.1025C11.0017 10.1025 11.8098 9.2944 11.8098 8.29758C11.8098 7.30076 11.0017 6.49268 10.0049 6.49268C9.00803 6.49268 8.19995 7.30076 8.19995 8.29758C8.19995 9.2944 9.00803 10.1025 10.0049 10.1025Z" stroke="#999999" stroke-width="2" stroke-linecap="round" stroke-linejoin="round"/>
<path d="M5.53198 16.7536C5.7576 14.4681 7.70964 12.7024 10.005 12.7024C12.3004 12.7024 14.2524 14.4681 14.478 16.7536" stroke="#999999" stroke-width="2" stroke-linecap="round" stroke-linejoin="round"/>
</g>
<defs>
<clipPath id="clip0_1201_12317">
<rect width="20" height="20" fill="white"/>
</clipPath>
</defs>
</svg>
