<svg width="20" height="20" viewBox="0 0 20 20" fill="none" xmlns="http://www.w3.org/2000/svg">
<path d="M18.1942 8.34997L10.5755 1.71255C10.2488 1.42915 9.75867 1.42915 9.42451 1.71255L1.80578 8.34997C1.18945 8.88693 1.56816 9.89373 2.37756 9.89373H3.14983V17.6573C3.14983 18.1197 3.52854 18.5 3.98893 18.5H7.13741C7.47156 18.5 7.73889 18.2315 7.73889 17.8959V13.369C7.73889 13.0409 8.00621 12.7724 8.33294 12.7724H11.6671C11.9938 12.7724 12.2611 13.0409 12.2611 13.369V17.8959C12.2611 18.2315 12.5284 18.5 12.8626 18.5H16.0111C16.4715 18.5 16.8502 18.1197 16.8502 17.6573V9.89373H17.6224C18.4318 9.89373 18.8105 8.87947 18.1942 8.34997Z" stroke="white" stroke-width="2" stroke-miterlimit="10"/>
</svg>
